<svg width="250" height="53" viewBox="0 0 250 53" fill="none" xmlns="http://www.w3.org/2000/svg">
<path fill-rule="evenodd" clip-rule="evenodd" d="M98.9557 1.86965C102.897 1.77428 106.379 1.69003 109.183 1.63438C111.985 1.57878 116.638 1.45558 122.496 1.30047C154.199 0.461023 221.202 -1.31316 221.207 1.63438C221.208 2.34106 221.117 4.45179 220.991 7.40498C220.493 19.0455 219.435 43.775 221.207 47.2001C223.3 51.2458 193.617 49.5556 170.314 48.2286C160.776 47.6854 152.306 47.2031 147.523 47.2001C133.973 47.1914 107.724 50.1552 95.2141 51.5677C93.3436 51.7789 91.7804 51.9554 90.6127 52.0821C75.8544 53.6834 42.4319 52.8614 28.9101 52.0821C27.712 38.7922 26.0346 10.0971 28.9101 1.63499C42.9082 3.22591 77.6519 2.38517 98.9557 1.86965ZM227.053 13.0544C226.248 19.9959 225.121 35.8312 227.053 38.4342H246.981C246.833 38.2752 246.675 38.1049 246.507 37.9249C243.478 34.6673 237.465 28.2005 237.923 26.7205C238.406 25.1586 246.578 17.1759 250 14.3559L227.053 13.0544ZM0 15.6575H21.7391V41.6881L0 43.6404C0 43.6404 9.05797 36.4819 9.66184 32.5773C10.2657 28.6728 1.44928 15.6575 0 15.6575Z" fill="#A58F83"/>
</svg>
