<svg width="72" height="72" viewBox="0 0 72 72" fill="none" xmlns="http://www.w3.org/2000/svg">
<g filter="url(#filter0_d_104:569)">
<circle cx="36" cy="32" r="32" fill="#A51623"/>
</g>
<path fill-rule="evenodd" clip-rule="evenodd" d="M31.5257 17.6718C31.6877 17.3069 31.9057 16.9401 32.1939 16.6182C32.5393 16.2323 33.0079 15.8879 33.6142 15.7272C34.0059 15.6234 34.4157 15.6068 34.8358 15.673C35.3913 15.201 35.9834 14.9101 36.6643 14.8713C37.2447 14.8381 37.791 15.0057 38.248 15.1857C39.4094 14.7582 40.6848 14.9601 41.6651 15.4194C42.4561 15.79 43.2704 16.4373 43.6899 17.3057C44.3318 17.3595 44.9406 17.5836 45.4531 17.9981C46.0576 18.4871 46.443 19.172 46.6122 19.9584C46.9947 20.1585 47.4558 20.476 47.8171 20.9764C48.3478 21.7113 48.5529 22.6633 48.3327 23.8361L48.415 23.8663C48.9983 24.0802 49.2978 24.7266 49.0838 25.3099L47.5343 29.5347L47.5315 29.5337C45.9722 33.9793 43.8158 36.6014 42.011 38.796C41.882 38.9529 41.7548 39.1076 41.6297 39.2606C40.6216 40.4939 39.7988 41.5639 39.2221 42.7953C38.7092 43.8906 38.3763 45.1486 38.347 46.7884C38.5242 47.0727 38.5732 47.4329 38.4489 47.7718L37.2868 50.9404C37.0728 51.5237 36.4265 51.8232 35.8432 51.6092L23.1687 46.9606C22.5853 46.7466 22.2859 46.1003 22.4998 45.517L23.662 42.3484C23.7863 42.0094 24.0566 41.7663 24.3756 41.6641C25.4135 40.3943 25.9729 39.2193 26.2898 38.0521C26.646 36.7398 26.7102 35.3916 26.7385 33.799C26.742 33.6014 26.745 33.4011 26.748 33.1981C26.7901 30.3569 26.8404 26.9624 28.5253 22.5628L28.5225 22.5618L30.072 18.337C30.286 17.7536 30.9323 17.4542 31.5156 17.6681L31.5257 17.6718ZM38.8232 17.3909C39.2897 17.1258 40.0121 17.1296 40.7104 17.4569C41.4453 17.8012 41.7162 18.2808 41.728 18.5223C41.7439 18.8464 41.8988 19.1478 42.1531 19.3493C42.4074 19.5507 42.7363 19.6326 43.0554 19.5739C43.5376 19.4851 43.851 19.5961 44.0381 19.7475C44.2258 19.8993 44.4299 20.2083 44.4585 20.7939C44.4805 21.2452 44.7705 21.6396 45.1947 21.7952C45.509 21.9105 45.8111 22.0418 45.993 22.2936C46.067 22.3961 46.1877 22.6126 46.1688 23.0425L33.6472 18.4499C33.7123 18.3255 33.7871 18.2119 33.8704 18.1189C33.9863 17.9893 34.0924 17.9282 34.1906 17.9022C34.2841 17.8774 34.4637 17.8594 34.7747 17.9735C35.1988 18.129 35.6748 18.0158 35.9835 17.6861C36.4893 17.1457 36.7208 17.1217 36.7926 17.1176C36.9595 17.1081 37.1804 17.1723 37.8257 17.4476C38.1488 17.5855 38.5178 17.5645 38.8232 17.3909ZM31.8511 20.1877C31.8651 20.1932 31.8793 20.1984 31.8937 20.2034L46.584 25.5913L46.1966 26.6475L31.4097 21.2241L31.7971 20.1679L31.8511 20.1877ZM30.6378 23.3376L45.419 28.7589C43.995 32.8377 42.0438 35.212 40.2601 37.3825L40.2594 37.3834C40.1347 37.5351 40.0104 37.6864 39.8876 37.8366C38.8765 39.0736 37.8911 40.3323 37.1845 41.841C36.6496 42.9831 36.2847 44.2438 36.1512 45.7307L26.7345 42.277C27.5941 41.0564 28.1308 39.8587 28.4612 38.6416C28.8977 37.0338 28.9597 35.4364 28.9882 33.8391C28.9916 33.6447 28.9946 33.4493 28.9976 33.2526C29.0402 30.4436 29.0869 27.3699 30.6378 23.3376ZM24.9996 45.2356L25.387 44.1793L35.9491 48.0532L35.5617 49.1094L24.9996 45.2356Z" fill="white"/>
<defs>
<filter id="filter0_d_104:569" x="0" y="0" width="72" height="72" filterUnits="userSpaceOnUse" color-interpolation-filters="sRGB">
<feFlood flood-opacity="0" result="BackgroundImageFix"/>
<feColorMatrix in="SourceAlpha" type="matrix" values="0 0 0 0 0 0 0 0 0 0 0 0 0 0 0 0 0 0 127 0" result="hardAlpha"/>
<feOffset dy="4"/>
<feGaussianBlur stdDeviation="2"/>
<feComposite in2="hardAlpha" operator="out"/>
<feColorMatrix type="matrix" values="0 0 0 0 0 0 0 0 0 0 0 0 0 0 0 0 0 0 0.25 0"/>
<feBlend mode="normal" in2="BackgroundImageFix" result="effect1_dropShadow_104:569"/>
<feBlend mode="normal" in="SourceGraphic" in2="effect1_dropShadow_104:569" result="shape"/>
</filter>
</defs>
</svg>
