<svg width="36" height="36" viewBox="0 0 36 36" fill="none" xmlns="http://www.w3.org/2000/svg">
<circle cx="18" cy="18" r="18" fill="#FCF8F1"/>
<path d="M23.4893 12.5H23.4993M12.9965 8H22.9896C25.7492 8 27.9862 10.2386 27.9862 13V23C27.9862 25.7614 25.7492 28 22.9896 28H12.9965C10.237 28 8 25.7614 8 23V13C8 10.2386 10.237 8 12.9965 8ZM21.9903 17.37C22.1137 18.2022 21.9716 19.0522 21.5844 19.799C21.1971 20.5458 20.5845 21.1514 19.8334 21.5297C19.0824 21.9079 18.2314 22.0396 17.4013 21.9059C16.5712 21.7723 15.8044 21.3801 15.2099 20.7852C14.6153 20.1902 14.2234 19.4229 14.0899 18.5922C13.9563 17.7616 14.0879 16.9099 14.4659 16.1584C14.8439 15.4069 15.449 14.7937 16.1953 14.4062C16.9416 14.0187 17.791 13.8766 18.6227 14C19.471 14.1259 20.2564 14.5215 20.8628 15.1283C21.4692 15.7351 21.8645 16.5211 21.9903 17.37Z" stroke="#342110" stroke-width="2" stroke-linecap="round" stroke-linejoin="round"/>
</svg>
