<svg width="28" height="38" viewBox="0 0 28 38" fill="none" xmlns="http://www.w3.org/2000/svg">
<path fill-rule="evenodd" clip-rule="evenodd" d="M9.52567 3.67181C9.6877 3.30686 9.90574 2.94009 10.1939 2.61818C10.5393 2.23227 11.0079 1.88792 11.6142 1.72724C12.0059 1.62344 12.4157 1.6068 12.8358 1.67297C13.3913 1.20098 13.9834 0.910141 14.6643 0.871267C15.2447 0.838135 15.791 1.00571 16.248 1.18573C17.4094 0.75821 18.6848 0.960063 19.6651 1.41943C20.4561 1.79005 21.2704 2.43727 21.6899 3.3057C22.3318 3.35954 22.9406 3.58358 23.4531 3.99808C24.0576 4.48705 24.443 5.17199 24.6122 5.95844C24.9947 6.15846 25.4558 6.47597 25.8171 6.97643C26.3478 7.71129 26.5529 8.66331 26.3327 9.8361L26.415 9.86629C26.9983 10.0802 27.2978 10.7266 27.0838 11.3099L25.5343 15.5347L25.5315 15.5337C23.9722 19.9793 21.8158 22.6014 20.011 24.796C19.882 24.9529 19.7548 25.1076 19.6297 25.2606C18.6216 26.4939 17.7988 27.5639 17.2221 28.7953C16.7092 29.8906 16.3763 31.1486 16.347 32.7884C16.5242 33.0727 16.5732 33.4329 16.4489 33.7718L15.2868 36.9404C15.0728 37.5237 14.4265 37.8232 13.8432 37.6092L1.16865 32.9606C0.585326 32.7466 0.285883 32.1003 0.499828 31.517L1.66198 28.3484C1.78629 28.0094 2.05657 27.7663 2.37565 27.6641C3.41349 26.3943 3.97292 25.2193 4.28977 24.0521C4.64601 22.7398 4.71015 21.3916 4.73853 19.799C4.74204 19.6014 4.74501 19.4011 4.74802 19.1981C4.79013 16.3569 4.84043 12.9624 6.5253 8.56282L6.5225 8.5618L8.07204 4.33696C8.28599 3.75363 8.93231 3.45418 9.51564 3.66813L9.52567 3.67181ZM16.8232 3.39094C17.2897 3.12578 18.0121 3.12964 18.7104 3.45687C19.4453 3.8012 19.7162 4.28079 19.728 4.52231C19.7439 4.84637 19.8988 5.14781 20.1531 5.34928C20.4074 5.55074 20.7363 5.63261 21.0554 5.57386C21.5376 5.48508 21.851 5.59613 22.0381 5.74748C22.2258 5.89928 22.4299 6.2083 22.4585 6.79387C22.4805 7.24523 22.7705 7.6396 23.1947 7.79521C23.509 7.91046 23.8111 8.04182 23.993 8.29363C24.067 8.39614 24.1877 8.61262 24.1688 9.04247L11.6472 4.44993C11.7123 4.32552 11.7871 4.21187 11.8704 4.11887C11.9863 3.98932 12.0924 3.9282 12.1906 3.9022C12.2841 3.87741 12.4637 3.8594 12.7747 3.97349C13.1988 4.12903 13.6748 4.01585 13.9835 3.68607C14.4893 3.14567 14.7208 3.12173 14.7926 3.11763C14.9595 3.1081 15.1804 3.17227 15.8257 3.44764C16.1488 3.58552 16.5178 3.56455 16.8232 3.39094ZM9.85108 6.18775C9.86513 6.19322 9.87932 6.19843 9.89365 6.20336L24.584 11.5913L24.1966 12.6475L9.40969 7.22415L9.79708 6.16794L9.85108 6.18775ZM8.63781 9.33763L23.419 14.7589C21.995 18.8377 20.0438 21.212 18.2601 23.3825L18.2594 23.3834C18.1347 23.5351 18.0104 23.6864 17.8876 23.8366C16.8765 25.0736 15.8911 26.3323 15.1845 27.841C14.6496 28.9831 14.2847 30.2438 14.1512 31.7307L4.73452 28.277C5.59405 27.0564 6.13081 25.8587 6.46121 24.6416C6.89766 23.0338 6.95973 21.4364 6.98819 19.8391C6.99165 19.6447 6.99462 19.4493 6.9976 19.2526C7.04023 16.4436 7.08687 13.3699 8.63781 9.33763ZM2.99964 31.2356L3.38702 30.1793L13.9491 34.0532L13.5617 35.1094L2.99964 31.2356Z" fill="#A58F83"/>
</svg>
