<svg width="36" height="36" viewBox="0 0 36 36" fill="none" xmlns="http://www.w3.org/2000/svg">
<circle cx="18" cy="18" r="18" fill="#FCF8F1"/>
<path fill-rule="evenodd" clip-rule="evenodd" d="M17.1096 6.62569L17.3727 6.9039C17.3528 6.92566 17.3334 6.94776 17.3143 6.97021L16.0681 8.43516L15.6566 8.00001L15.633 8.00207C15.5581 8.00857 15.4703 8.01621 15.3748 8.03001C14.9592 8.09008 14.3991 8.26688 14.1377 8.9753C14.1695 9.0169 14.2354 9.11459 14.3281 9.2565C14.4386 9.42561 14.5873 9.65753 14.7618 9.93223L14.7759 9.95437L13.4187 11.5499C13.3342 11.4159 13.253 11.2874 13.176 11.1659C12.9903 10.873 12.8319 10.6249 12.712 10.4398C12.6322 10.3167 12.5844 10.245 12.5612 10.2102L12.5612 10.2102L12.5611 10.2101L12.5611 10.2101C12.543 10.1829 12.54 10.1784 12.5485 10.1896C12.1326 9.64523 12.0242 8.92581 12.2613 8.28304C13.0324 6.19316 15.0207 6.0427 15.4382 6.0111L15.4382 6.0111C15.4554 6.0098 15.4699 6.0087 15.4816 6.00768C16.0902 5.95424 16.6898 6.18186 17.1096 6.62569ZM23.7156 28.1779L18.03 20.1531L18.387 19.6492C18.5229 19.4574 18.6311 19.2473 18.7083 19.0253L19.0577 18.0209L19.1419 18.2629L25.3475 27.0217C26.5372 27.1273 28.8964 26.8617 29.3548 24.0313C28.6006 23.0442 27.4501 21.4289 26.2765 19.7813L26.2765 19.7812L26.2765 19.7812C25.055 18.0663 23.8086 16.3164 22.9582 15.2035L21.0612 14.0398L21.4322 13.447C21.6662 13.0734 21.9008 12.699 22.1233 12.345L24.004 13.4987C24.2137 13.6274 24.398 13.7936 24.5474 13.9892C25.4064 15.1133 26.6436 16.8493 27.8336 18.52L27.8843 18.5912L27.8843 18.5912C29.0746 20.2623 30.2105 21.857 30.944 22.817C31.2777 23.2537 31.417 23.8085 31.3291 24.3511C30.9999 26.3833 29.9089 27.706 28.5361 28.4081C27.2805 29.0503 25.9717 29.085 25.1707 29.0139C24.5866 28.962 24.0547 28.6564 23.7156 28.1779ZM19.8732 6.00768C19.2647 5.95424 18.6651 6.18187 18.2453 6.62569L17.6314 7.27468C17.6073 7.30022 17.5838 7.32639 17.561 7.35316L13.4058 12.2381L11.3509 13.4987C11.1411 13.6274 10.9569 13.7936 10.8075 13.9892C9.94849 15.1133 8.71119 16.8494 7.52122 18.52L7.47052 18.5912L7.47048 18.5912C6.28021 20.2623 5.14431 21.8571 4.41084 22.817C4.07713 23.2537 3.93786 23.8085 4.02574 24.3511C4.35493 26.3833 5.44591 27.706 6.81879 28.4081C8.07435 29.0503 9.38312 29.085 10.1841 29.0139C10.7682 28.9621 11.3002 28.6565 11.6392 28.1779L17.8449 19.4192C17.9536 19.2657 18.0402 19.0976 18.102 18.92L19.0843 16.0958L19.1396 16.0086L19.1591 15.9778C19.2704 15.802 19.4212 15.5622 19.5971 15.2815C19.797 14.9626 20.0328 14.5856 20.2843 14.1836L20.2855 14.1818C20.4757 13.8776 20.6749 13.5592 20.8743 13.2407C21.3396 12.4976 21.8081 11.7509 22.1788 11.166C22.3645 10.873 22.5229 10.6249 22.6429 10.4398C22.7228 10.3165 22.7706 10.2448 22.7937 10.2101C22.8119 10.1829 22.8149 10.1784 22.8063 10.1896C23.2223 9.64523 23.3307 8.92581 23.0935 8.28305C22.3225 6.19316 20.3342 6.0427 19.9166 6.01111C19.8994 6.0098 19.8849 6.00871 19.8732 6.00768ZM12.3966 15.2035L14.723 13.7764L18.9039 8.86129L19.0844 8.64901L19.6983 8.00001L19.7219 8.00207C19.7967 8.00858 19.8846 8.01621 19.98 8.03001C20.3956 8.09008 20.9558 8.26688 21.2171 8.9753C21.1854 9.01691 21.1195 9.11459 21.0267 9.25651C20.9162 9.42562 20.7676 9.65754 20.593 9.93223L20.536 10.022L20.5178 10.0507C19.9806 10.8978 19.232 12.0947 18.589 13.1225L18.589 13.1226C17.8962 14.2301 17.3262 15.1413 17.2759 15.2071L16.213 18.2629L10.0073 27.0217C8.81769 27.1273 6.45848 26.8617 6.00001 24.0313C6.7542 23.0442 7.90475 21.4289 9.07831 19.7813L9.07832 19.7813C10.2998 18.0663 11.5462 16.3164 12.3966 15.2035Z" fill="#342110"/>
</svg>
