<svg width="129" height="120" viewBox="0 0 129 120" fill="none" xmlns="http://www.w3.org/2000/svg">
<path d="M16.8875 58.2058C16.8875 47.4363 25.6179 38.7058 36.3875 38.7058L106.275 38.7058L125.275 58.2059L106.275 77.7058L36.3875 77.7058C25.6179 77.7058 16.8875 68.9754 16.8875 58.2058V58.2058Z" fill="#A51623"/>
<path d="M38.5395 60.8989H35.1515V57.7069H38.5395V60.8989ZM34.1575 56.7689V61.8229H39.5615V56.7689H34.1575ZM32.1415 64.0209V54.5989H41.5915V64.0209H32.1415ZM31.0915 53.5629V65.7569H32.1415V65.0009H41.5915V65.7569H42.6975V53.5629H31.0915ZM48.7315 63.7829V61.4589H51.3635V60.5069H48.7315V58.8409H47.7235V60.5069H45.0495V61.4589H47.7235V63.9089C46.4915 64.0629 45.3715 64.2029 44.4895 64.3009L44.6575 65.3369C46.5055 65.0709 49.2355 64.6929 51.8395 64.3149L51.8115 63.3769L48.7315 63.7829ZM49.0535 55.9849C49.4175 56.4189 49.8095 56.9229 50.1595 57.4269C49.0395 57.4829 47.9335 57.5249 46.9395 57.5669C47.3315 56.7409 47.7375 55.7049 48.0875 54.8229H51.7835V53.8989H44.6435V54.8229H46.9255C46.6595 55.6909 46.2675 56.7829 45.8895 57.6089L44.6155 57.6649L44.6995 58.6589C46.2955 58.5609 48.5495 58.4489 50.7475 58.2949C50.9435 58.6169 51.0975 58.9109 51.2235 59.1629L52.0355 58.6729C51.6435 57.8189 50.6635 56.5169 49.8235 55.5509L49.0535 55.9849ZM53.3795 54.6549H52.3855V62.3549H53.3795V54.6549ZM55.6755 53.3669V64.3569C55.6755 64.6229 55.5915 64.6929 55.3395 64.7069C55.0735 64.7069 54.1915 64.7209 53.2815 64.6789C53.4215 64.9869 53.5755 65.4769 53.6315 65.7569C54.7655 65.7569 55.5915 65.7429 56.0535 65.5749C56.5155 65.3929 56.6835 65.0709 56.6835 64.3569V53.3669H55.6755ZM68.4015 55.1309H61.4015V54.1649H68.4015V55.1309ZM68.4015 56.8109H61.4015V55.8309H68.4015V56.8109ZM69.4235 53.4229H60.4215V57.5529H69.4235V53.4229ZM69.2835 60.8989C68.9195 61.6829 68.4015 62.3689 67.7715 62.9569C67.1975 62.3689 66.7215 61.6689 66.3995 60.8989H69.2835ZM60.9115 62.6909H63.4455V63.5449C62.5775 63.6429 61.7095 63.7269 60.9115 63.8109V62.6909ZM60.9115 60.9269H63.4455V61.9069H60.9115V60.9269ZM63.4455 59.2049V60.1429H60.9115V59.2049H63.4455ZM69.9275 60.0449L69.7455 60.0729H64.9295V60.8989H66.1335L65.5315 61.0809C65.9095 62.0189 66.4275 62.8449 67.0715 63.5449C66.2735 64.1469 65.3635 64.5949 64.4395 64.8749V59.2049H70.9915V58.3369H58.7555V59.2049H59.9595V63.9089C59.4695 63.9649 59.0215 64.0069 58.6295 64.0349L58.7275 64.9589C60.0295 64.8049 61.7375 64.6089 63.4455 64.3989V65.7569H64.4395V64.8889C64.6215 65.0709 64.8735 65.4349 64.9855 65.6729C65.9655 65.3369 66.9175 64.8609 67.7715 64.2029C68.5975 64.8889 69.5775 65.4209 70.6975 65.7429C70.8235 65.5049 71.1035 65.1269 71.3275 64.9309C70.2495 64.6649 69.2975 64.2029 68.4995 63.5869C69.3955 62.7189 70.1235 61.6269 70.5575 60.2969L69.9275 60.0449ZM78.9715 64.0629V58.5189H84.1795V57.4829H78.9715V53.1989H77.8795V64.0629H72.6575V65.0989H85.1315V64.0629H78.9715ZM99.1035 56.3769V55.3829H93.3635V52.9469H92.3135V55.3829H86.6715V56.3769H90.9695C90.8015 59.5969 90.3955 63.2229 86.5315 64.9589C86.7975 65.1689 87.1195 65.5469 87.2735 65.8129C90.1155 64.4409 91.2355 62.1309 91.7255 59.6529H96.3455C96.1075 62.8869 95.8415 64.2589 95.4215 64.6229C95.2815 64.7629 95.0855 64.7769 94.7635 64.7769C94.4135 64.7769 93.4195 64.7769 92.4255 64.6789C92.6215 64.9589 92.7615 65.3929 92.7895 65.6869C93.7275 65.7429 94.6375 65.7569 95.1275 65.7289C95.6595 65.7009 95.9955 65.6029 96.3175 65.2669C96.8635 64.7069 97.1435 63.1669 97.4235 59.1769C97.4375 59.0089 97.4515 58.6729 97.4515 58.6729H91.8795C91.9915 57.9029 92.0475 57.1329 92.0895 56.3769H99.1035Z" fill="white"/>
</svg>
