<svg width="130" height="121" viewBox="0 0 130 121" fill="none" xmlns="http://www.w3.org/2000/svg">
<path d="M17 58.513C17 47.7434 25.7304 39.013 36.5 39.013L106.387 39.013L125.387 58.513L106.387 78.013L36.5 78.013C25.7304 78.013 17 69.2825 17 58.513Z" fill="#A51623"/>
<path d="M35.6 53.296C35.376 54.024 34.97 55.088 34.62 55.732L35.39 55.984C35.768 55.382 36.216 54.402 36.58 53.576L35.6 53.296ZM33.178 55.662C33.052 55.018 32.66 54.052 32.254 53.324L31.442 53.576C31.834 54.318 32.198 55.312 32.324 55.97L33.178 55.662ZM33.024 59.75V59.708V56.978H34.76V59.75H33.024ZM37.168 60.702V59.75H35.698V56.978H37.014V56.04H30.854V56.978H32.1V59.708V59.75H30.602V60.702H32.086C32.016 62.382 31.708 64.09 30.546 65.504C30.784 65.644 31.148 65.938 31.302 66.134C32.618 64.552 32.94 62.62 33.01 60.702H34.76V66.05H35.698V60.702H37.168ZM38.946 57.006C38.988 56.306 39.03 55.62 39.058 54.976H43.258V54.038H36.86V54.976H38.106C37.994 58.084 37.686 62.144 37.406 64.65L36.37 64.804L36.65 65.742C37.952 65.504 39.688 65.182 41.34 64.846L41.284 64.006C40.29 64.174 39.296 64.342 38.414 64.482C38.582 62.746 38.764 60.282 38.904 57.902H41.284C41.326 62.466 41.396 66.064 42.824 66.064C43.538 66.064 43.72 65.406 43.79 63.572C43.608 63.446 43.356 63.222 43.16 63.012C43.146 64.23 43.09 65.112 42.908 65.112C42.222 65.112 42.194 61.052 42.194 57.006H38.946ZM40.892 62.326C40.738 61.486 40.248 60.226 39.73 59.26L39.044 59.47C39.534 60.436 39.996 61.724 40.15 62.55L40.892 62.326ZM52.89 58.392H50.174V59.288H56.754V58.392H53.912V56.124H57.048V55.214H53.912V53.282H52.89V55.214H49.866V56.124H52.89V58.392ZM48.298 57.832V60.142H49.278V53.282H48.298V55.172H46.436V53.478H45.54V56.32H46.436V55.998H48.298V57.006H44.826V57.832H45.834C45.694 58.7 45.358 59.358 44.504 59.75C44.714 59.904 44.98 60.226 45.092 60.436C46.212 59.89 46.618 59.008 46.8 57.832H48.298ZM55.718 61.78C55.102 62.242 54.108 62.816 53.282 63.236C52.75 62.732 52.288 62.172 51.924 61.542H57.244V60.716H51.532V59.624H50.51V60.716H44.77V61.542H49.474C48.172 62.34 46.254 62.984 44.574 63.292C44.77 63.488 45.036 63.838 45.162 64.062C46.03 63.88 46.968 63.6 47.85 63.236V64.818C47.206 64.902 46.618 64.986 46.114 65.042L46.268 65.924C47.864 65.7 50.16 65.364 52.316 65.042L52.288 64.202C51.112 64.37 49.922 64.538 48.83 64.692V62.802C49.614 62.424 50.314 62.004 50.888 61.542H50.93C52.064 63.852 54.108 65.42 56.838 66.12C56.964 65.868 57.23 65.476 57.454 65.266C56.11 64.972 54.92 64.468 53.94 63.768C54.78 63.376 55.732 62.858 56.488 62.326L55.718 61.78ZM63.11 53.772H59.274V54.612H63.11V53.772ZM63.516 55.606H58.588V56.46H63.516V55.606ZM63.152 59.344H59.204V60.184H63.152V59.344ZM62.27 62.074V64.426H60.072V62.074H62.27ZM63.166 61.22H59.19V65.91H60.072V65.266H63.166V61.22ZM67.674 58.798V60.114H65.364V58.798H67.674ZM65.364 62.312V60.898H67.674V62.312H65.364ZM71.062 55.522H65.812C66.078 54.878 66.316 54.206 66.512 53.52L65.462 53.268C64.986 55.046 64.174 56.81 63.152 57.958V57.496H59.204V58.322H63.152V58.154C63.404 58.336 63.754 58.616 63.922 58.77C64.118 58.546 64.3 58.294 64.482 58.028V63.95H65.364V63.138H68.57V57.972H64.524C64.832 57.51 65.126 57.006 65.392 56.46H70.068C69.956 62.27 69.802 64.44 69.41 64.888C69.27 65.07 69.116 65.112 68.85 65.112C68.528 65.112 67.73 65.098 66.834 65.042C67.016 65.294 67.142 65.728 67.17 66.008C67.94 66.05 68.766 66.078 69.242 66.022C69.718 65.98 70.026 65.868 70.306 65.462C70.824 64.804 70.922 62.634 71.062 56.068V55.522ZM81.478 55.62H79.938V54.794H81.478V55.62ZM83.886 56.306V57.65H82.346V56.306H83.886ZM79.938 56.306H81.478V57.65H79.938V56.306ZM77.586 56.306H79.084V57.65H77.586V56.306ZM79.084 55.62H76.676V58.322H84.824V55.62H82.346V54.794H85.258V53.996H76.354V54.794H79.084V55.62ZM77.936 62.536H83.662V63.362H77.936V62.536ZM77.936 61.094H83.662V61.892H77.936V61.094ZM77.936 59.666H83.662V60.45H77.936V59.666ZM84.67 64.02V58.994H76.97V64.02H84.67ZM75.29 53.366C74.618 55.522 73.512 57.65 72.308 59.05C72.476 59.302 72.756 59.848 72.854 60.1C73.316 59.554 73.75 58.924 74.17 58.224V66.064H75.164V56.362C75.584 55.48 75.948 54.556 76.256 53.632L75.29 53.366ZM79.196 64.118C78.468 64.58 77.124 65.112 75.906 65.378C76.102 65.56 76.354 65.882 76.494 66.078C77.726 65.784 79.098 65.238 79.952 64.636L79.196 64.118ZM81.478 64.72C82.682 65.14 83.914 65.686 84.628 66.106L85.51 65.49C84.712 65.084 83.368 64.552 82.15 64.132L81.478 64.72ZM97.242 55.844H94.54V54.528H97.242V55.844ZM98.208 53.828H93.588V56.544H98.208V53.828ZM91.488 55.844H88.814V54.528H91.488V55.844ZM92.468 53.828H87.876V56.544H92.468V53.828ZM89.262 61.276V60.072H92.426V61.276H89.262ZM89.262 58.084H92.426V59.274H89.262V58.084ZM96.822 59.274H93.49V58.084H96.822V59.274ZM96.822 61.276H93.49V60.072H96.822V61.276ZM99.174 63.18H93.49V62.116H97.886V57.244H88.254V62.116H92.426V63.18H86.854V64.09H92.426V66.064H93.49V64.09H99.174V63.18Z" fill="white"/>
</svg>
