<svg width="82" height="83" viewBox="0 0 82 83" fill="none" xmlns="http://www.w3.org/2000/svg">
<path fill-rule="evenodd" clip-rule="evenodd" d="M81.0092 1.49078V80.9723V81.4539V81.9723H0.644333C0.601357 81.9843 0.556038 81.9908 0.509216 81.9908C0.23307 81.9908 0.00921631 81.7669 0.00921631 81.4908C0.00921631 76.6111 1.25471 73.6601 3.0164 71.9337C4.7762 70.2091 6.96526 69.7908 8.67248 69.7908C9.47932 69.7908 10.4499 69.8613 11.4507 69.934L11.5692 69.9426C12.6211 70.019 13.7099 70.0956 14.7279 70.1027C15.751 70.1098 16.6671 70.0459 17.3805 69.8563C17.8135 69.7413 18.1366 69.5897 18.3647 69.4062C16.6923 68.618 14.339 67.3517 12.1497 65.5838C9.69798 63.604 7.40896 60.9605 6.55534 57.6144C5.93379 55.1779 6.33526 52.97 7.75333 51.5866C9.17622 50.1985 11.4772 49.7812 14.3458 50.6105C15.9173 51.0648 17.0861 52.3679 17.9391 53.9864C18.7962 55.6127 19.375 57.6313 19.7331 59.6574C20.0919 61.6874 20.2338 63.7512 20.2031 65.4829C20.1878 66.3489 20.1292 67.1385 20.031 67.8037C19.968 68.2306 19.8866 68.6211 19.7835 68.9535C21.6249 69.7763 22.4602 70.1062 23.1378 70.2419C23.6526 70.345 24.0648 70.3373 24.791 70.3238C25.0956 70.3181 25.4554 70.3114 25.9011 70.3114C26.5293 70.3114 27.4008 70.1008 28.378 69.6976C29.1763 69.3683 30.0205 68.9206 30.8239 68.3867C29.9108 67.4045 28.9062 66.1163 27.8251 64.1298C27.1294 62.8513 26.3832 60.9269 26.408 59.1965C26.4205 58.3224 26.6307 57.4566 27.1879 56.7572C27.7507 56.0508 28.6185 55.5754 29.8234 55.3962C31.0336 55.2162 32.0393 55.4231 32.8548 55.9175C33.6624 56.4071 34.2412 57.1529 34.6535 57.9822C35.4717 59.6279 35.6863 61.7069 35.6863 63.1833C35.6863 64.2834 35.2294 65.3414 34.5468 66.2886C33.9616 67.1006 33.1947 67.8541 32.3527 68.5152C32.5402 68.6971 32.7243 68.8714 32.9052 69.0427C33.1116 69.238 33.3138 69.4295 33.5122 69.6239C34.8217 70.9072 37.5862 72.5439 39.7073 73.3573C41.656 74.1046 43.3802 73.9106 44.9236 73.1796C46.4857 72.4398 47.8772 71.1415 49.1039 69.6619C50.2337 68.2992 50.5424 66.0143 50.4572 63.5C50.2723 63.4278 50.0856 63.3518 49.8966 63.272C47.132 62.1041 43.545 59.5986 40.6791 57.4155C39.2392 56.3186 37.9692 55.2937 37.0592 54.5431C36.6041 54.1677 36.2388 53.8606 35.987 53.6472C35.8611 53.5405 35.7636 53.4572 35.6974 53.4004L35.6219 53.3356L35.6084 53.3239L35.5824 53.3042C35.5567 53.2846 35.5189 53.2558 35.4698 53.2179C35.3716 53.1422 35.228 53.0307 35.0453 52.8862C34.6799 52.5971 34.1577 52.1761 33.5284 51.6463C32.2703 50.5871 30.5808 49.0906 28.8576 47.3425C27.1357 45.5958 25.3713 43.5892 23.9696 41.5093C22.5724 39.4362 21.5091 37.252 21.2378 35.1549C20.6735 30.7918 21.563 26.7445 24.6385 23.5443C25.8428 22.2912 27.7494 21.5887 29.7861 21.3279C31.8345 21.0655 34.088 21.2393 36.062 21.8105C39.1181 22.6948 41.3693 25.6563 42.8318 28.2651C43.5724 29.5862 44.1303 30.8526 44.503 31.7878C44.6895 32.2558 44.8301 32.6422 44.9244 32.9126C44.9716 33.0478 45.0072 33.154 45.0312 33.2271C45.0412 33.2576 45.0492 33.2824 45.0552 33.301C45.9013 34.9842 46.9959 38.8094 48.0198 43.141C49.0569 47.529 50.0373 52.508 50.6279 56.4772C50.6727 56.778 50.7237 57.1042 50.7779 57.4511L50.7779 57.4513C51.0147 58.9663 51.3133 60.8767 51.4253 62.7925C53.4571 63.5031 55.2755 63.6948 57.5878 63.3949C58.8829 63.2269 60.4636 62.4275 61.8438 61.4619C62.5262 60.9845 63.1431 60.478 63.6326 60.0107C64.1305 59.5356 64.4687 59.1274 64.6232 58.8485C66.9999 54.5579 66.0796 51.0265 64.8893 46.459L64.8888 46.4572C64.8028 46.127 64.7153 45.7914 64.6276 45.4497C64.0097 45.651 63.3585 45.7781 62.6942 45.8393C60.785 46.0151 58.7257 45.6525 56.9214 44.903C55.1215 44.1552 53.5279 43.0021 52.5973 41.5539C51.6517 40.0822 51.4056 38.3207 52.3045 36.4721L52.3238 36.4323L52.3499 36.3965C53.2169 35.2057 54.1618 34.5483 55.1482 34.3126C56.1307 34.0779 57.0792 34.2795 57.9218 34.6611C59.3489 35.3073 60.5961 36.5351 61.3665 37.2935C61.4883 37.4134 61.5981 37.5216 61.6949 37.6138C62.5084 38.3896 63.339 39.7383 64.0208 41.1062C64.5279 42.1235 64.9706 43.1879 65.2756 44.0986C65.8816 43.7816 66.4142 43.3651 66.8473 42.8427C70.3727 38.5905 70.8209 33.9298 70.2167 28.7487C69.9484 26.4485 68.6133 23.9194 66.8348 21.5498C66.0736 20.5356 65.2385 19.5603 64.3858 18.6561C63.9883 19.6518 63.3204 20.92 62.43 22.1349C61.2828 23.7003 59.7229 25.2366 57.8301 25.958C56.1297 26.6061 54.0497 26.4531 52.1688 25.8174C50.2854 25.1808 48.519 24.033 47.4536 22.5874C46.0997 20.7501 46.062 17.0117 49.1352 13.9373L49.1662 13.9062L49.2022 13.8811C52.2899 11.7214 54.4809 11.2381 56.4247 11.7209C57.3755 11.9571 58.2286 12.416 59.0591 12.951C59.4746 13.2187 59.8917 13.5102 60.3139 13.8061L60.3592 13.8378C60.7692 14.1252 61.1859 14.4172 61.6247 14.7059L61.647 14.7206L61.6676 14.7376C62.4101 15.3488 63.2 16.0548 63.9954 16.8321C64.1102 16.4306 64.2033 15.9337 64.2873 15.3511C64.355 14.8816 64.4147 14.3748 64.4778 13.8392L64.4782 13.8358L64.4782 13.8352C64.5409 13.303 64.6067 12.7441 64.6859 12.1793C64.9986 9.95001 65.5355 7.46492 67.098 5.93368C68.7626 4.3024 70.4503 3.05684 72.5716 2.22527C74.6887 1.39538 77.2044 0.990784 80.5092 0.990784C80.7854 0.990784 81.0092 1.21464 81.0092 1.49078ZM1.01417 80.9723H80.0092V1.99404C77.035 2.03323 74.7983 2.42652 72.9366 3.1563C70.9763 3.92472 69.3987 5.07917 67.798 6.64789C66.5058 7.91425 65.9917 10.0687 65.6762 12.3182C65.5986 12.8717 65.5339 13.4211 65.4709 13.9561L65.4706 13.9592C65.408 14.4908 65.3469 15.01 65.2771 15.4938C65.1632 16.2834 65.0202 17.0324 64.7813 17.6223C65.7725 18.6476 66.7508 19.7719 67.6346 20.9495C69.4523 23.3713 70.9113 26.0719 71.2099 28.6329C71.8296 33.9468 71.3894 38.931 67.6171 43.481C67.0464 44.1694 66.3451 44.6933 65.5635 45.0734C65.6646 45.4684 65.7666 45.8581 65.8675 46.2435C67.0512 50.7651 68.0758 54.6793 65.4979 59.3331C65.2695 59.7455 64.844 60.237 64.3231 60.7341C63.7939 61.2392 63.1372 61.7774 62.417 62.2813C60.9918 63.2783 59.2512 64.1876 57.7164 64.3866C55.3807 64.6896 53.4932 64.5177 51.4669 63.8616C51.5102 66.2707 51.188 68.715 49.8737 70.3002C48.6048 71.8307 47.1026 73.2541 45.3517 74.0834C43.582 74.9215 41.5737 75.1441 39.3493 74.291C37.1424 73.4448 34.2472 71.7444 32.8123 70.3382C32.6213 70.151 32.4237 69.964 32.2198 69.7711L32.2197 69.7711C31.9985 69.5618 31.7699 69.3455 31.5341 69.1141C30.6309 69.73 29.6714 70.2458 28.7594 70.6221C27.7252 71.0487 26.715 71.3114 25.9011 71.3114C25.5294 71.3114 25.2053 71.3174 24.9133 71.3229C24.1244 71.3377 23.5693 71.3482 22.9414 71.2224C22.1337 71.0607 21.1848 70.6759 19.3343 69.8481C18.9256 70.3484 18.3062 70.6451 17.6373 70.8228C16.7941 71.0469 15.7719 71.11 14.721 71.1027C13.665 71.0953 12.5441 71.016 11.4968 70.94L11.3989 70.9329L11.3983 70.9329C10.3796 70.8589 9.44176 70.7908 8.67248 70.7908C7.11439 70.7908 5.22182 71.1725 3.71632 72.6479C2.26865 74.0666 1.09921 76.5749 1.01417 80.9723ZM61.0525 15.5265C61.8061 16.1479 62.6096 16.8696 63.4163 17.665L63.4064 17.6902C63.3893 17.7348 63.3708 17.7889 63.3581 17.8456C63.3517 17.8742 63.3448 17.9118 63.3419 17.9547C63.3394 17.9935 63.3382 18.0627 63.36 18.143C63.3731 18.191 63.3981 18.2548 63.4442 18.3175C63.0805 19.22 62.4608 20.4012 61.6234 21.5438C60.5311 23.0343 59.1118 24.3994 57.474 25.0236C56.06 25.5625 54.2322 25.4592 52.489 24.87C50.7482 24.2817 49.1738 23.236 48.2587 21.9942C47.2581 20.6364 47.0486 17.4643 49.8117 14.6752C52.7604 12.6209 54.6419 12.3084 56.1836 12.6914C56.9786 12.8889 57.7239 13.2805 58.5176 13.7917C58.9142 14.0471 59.3157 14.3276 59.74 14.625L59.7889 14.6593C60.1895 14.94 60.6094 15.2344 61.0525 15.5265ZM63.1258 41.5523C63.6322 42.5681 64.0649 43.6192 64.3513 44.4882C63.8042 44.6697 63.2166 44.787 62.6025 44.8435C60.8731 45.0028 58.9766 44.6739 57.305 43.9795C55.629 43.2832 54.2268 42.2399 53.4386 41.0133C52.6723 39.8207 52.4735 38.4428 53.1847 36.9491C53.9414 35.9224 54.6909 35.45 55.3806 35.2852C56.0823 35.1176 56.7982 35.25 57.5093 35.572C58.7572 36.1371 59.8571 37.2154 60.6413 37.9842C60.7714 38.1118 60.8928 38.2308 61.0048 38.3376C61.687 38.9881 62.4548 40.2061 63.1258 41.5523ZM49.7927 57.6244C50.0102 59.0178 50.272 60.6947 50.3971 62.3975C50.3601 62.3821 50.323 62.3665 50.2858 62.3508C47.6503 61.2375 44.1532 58.8048 41.2851 56.62C39.8579 55.5329 38.5984 54.5164 37.6956 53.7717C37.2443 53.3994 36.8824 53.0952 36.6336 52.8843C36.5092 52.7789 36.4131 52.6968 36.3482 52.6412L36.2748 52.5781L36.2563 52.5621L36.2518 52.5582L36.2507 52.5573L36.2504 52.5571L35.923 52.935L36.2504 52.557L36.2374 52.5457L36.2236 52.5354L35.923 52.935L36.2236 52.5354L36.2233 52.5351L36.2217 52.534L36.2151 52.529L36.188 52.5084C36.1639 52.49 36.1276 52.4623 36.0801 52.4257C35.985 52.3525 35.8448 52.2436 35.6656 52.1018C35.3072 51.8184 34.7931 51.4038 34.1724 50.8813C32.9306 49.8358 31.2654 48.3606 29.5697 46.6405C27.8727 44.919 26.1539 42.961 24.7988 40.9504C23.4392 38.9331 22.472 36.901 22.2296 35.0266C21.6939 30.8856 22.5434 27.1675 25.3595 24.2372C26.341 23.216 27.9883 22.5663 29.9132 22.3198C31.8263 22.0747 33.9419 22.2381 35.784 22.7711C38.4312 23.537 40.5139 26.1755 41.9595 28.7541C42.6729 30.0267 43.2126 31.251 43.574 32.1579C43.7546 32.6109 43.8901 32.9835 43.9802 33.2419C44.0253 33.371 44.0589 33.4715 44.0811 33.5392C44.0922 33.573 44.1005 33.5985 44.1058 33.6154L44.1117 33.634L44.1131 33.6382L44.1133 33.639L44.1133 33.6391L44.1134 33.6391L44.126 33.6799L44.1455 33.718C44.9295 35.2547 46.0091 38.9816 47.0466 43.371C48.0784 47.7365 49.053 52.6875 49.6388 56.6244C49.6853 56.9365 49.7375 57.271 49.7925 57.6236L49.7927 57.6244ZM33.7355 65.704C33.1968 66.4515 32.4671 67.1646 31.6443 67.7994C30.7451 66.8464 29.7707 65.6128 28.7035 63.6518C28.0429 62.438 27.3866 60.6924 27.4078 59.2108C27.4183 58.479 27.5932 57.8534 27.9701 57.3803C28.3414 56.9142 28.9567 56.5361 29.9705 56.3853C30.9791 56.2353 31.744 56.4135 32.3363 56.7726C32.9365 57.1364 33.4027 57.7126 33.758 58.4274C34.4751 59.8697 34.6863 61.767 34.6863 63.1833C34.6863 64.0045 34.3432 64.8607 33.7355 65.704ZM19.0417 67.6577C18.9906 68.0042 18.93 68.2976 18.864 68.5359C17.2302 67.7705 14.9164 66.5326 12.7779 64.8058C10.4119 62.8952 8.30335 60.421 7.52431 57.3672C6.95793 55.147 7.37279 53.3549 8.45163 52.3024C9.52565 51.2547 11.4022 50.8004 14.068 51.5711C15.2637 51.9168 16.2588 52.9429 17.0544 54.4526C17.8459 55.9543 18.4004 57.8626 18.7484 59.8315C19.0957 61.7966 19.2328 63.7961 19.2033 65.4652C19.1885 66.2997 19.1322 67.045 19.0417 67.6577Z" fill="#C2B5AE"/>
</svg>
