<svg width="73" height="143" viewBox="0 0 73 143" fill="none" xmlns="http://www.w3.org/2000/svg">
<path fill-rule="evenodd" clip-rule="evenodd" d="M21.3169 0.193292C20.9929 -0.044065 20.5583 -0.0645242 20.2134 0.141342C18.2024 1.34176 16.8662 3.85311 16.7335 6.67099C16.6547 8.3446 17.0088 9.95045 17.7051 11.2686C15.8154 10.2696 13.948 9.38125 12.1267 8.60797C11.9378 6.3086 10.3324 4.02218 7.92909 2.63464C5.48603 1.22414 2.65078 0.992121 0.554263 2.03609C0.194718 2.21512 -0.0228175 2.59191 0.00190586 2.9928C0.146068 5.33041 1.76463 7.6698 4.20768 9.0803C6.24707 10.2577 8.55975 10.614 10.4879 10.0923C10.8041 10.2211 11.1219 10.3536 11.441 10.4897C10.9142 10.6576 10.3972 10.8928 9.90472 11.1951C7.93788 12.4026 6.74691 14.4449 6.78047 16.4808C6.78648 16.8456 6.99064 17.1781 7.31319 17.3485C9.11352 18.2997 11.4735 18.1619 13.4403 16.9544C15.0201 15.9846 16.0993 14.4761 16.4455 12.865C17.7473 13.5449 19.0601 14.2787 20.3758 15.0648C19.1299 15.1019 17.8473 15.5233 16.7269 16.3124C14.84 17.6413 13.78 19.7545 13.9416 21.7843C13.9706 22.148 14.1953 22.467 14.5279 22.6168C16.3846 23.4527 18.7312 23.1665 20.6181 21.8377C22.3175 20.6408 23.3462 18.8078 23.4157 16.9725C25.445 18.308 27.4661 19.7649 29.4494 21.3372C28.2831 21.2451 27.0468 21.4804 25.9027 22.0536C23.8393 23.0876 22.4772 25.0199 22.3357 27.0512C22.3103 27.4151 22.4851 27.7639 22.7918 27.9615C24.5037 29.0639 26.8668 29.1294 28.9301 28.0955C30.7575 27.1798 32.0349 25.5595 32.4015 23.7898C34.6715 25.7658 36.869 27.8961 38.9459 30.171C37.7805 29.9156 36.485 29.9508 35.2149 30.2984C32.8743 30.9391 30.9994 32.537 30.36 34.4791C30.2344 34.8606 30.3493 35.2802 30.6517 35.5446C32.1909 36.8904 34.6182 37.3108 36.9589 36.6702C39.0227 36.1053 40.7244 34.7963 41.5363 33.1633C43.0183 34.9708 44.4201 36.8582 45.721 38.8214C44.5643 38.292 43.1883 38.0633 41.7789 38.1953C39.3627 38.4215 37.2397 39.6712 36.2742 41.4735C36.0845 41.8275 36.1251 42.2607 36.3772 42.5734C37.6605 44.1651 39.9786 44.9989 42.3948 44.7726C44.6188 44.5644 46.5944 43.4891 47.6476 41.9138C48.9753 44.187 50.1648 46.5517 51.1874 49.0021C49.8722 48.1871 48.1516 47.8294 46.3924 48.0376C43.9825 48.3228 41.8907 49.624 40.9695 51.4493C40.7885 51.8079 40.8397 52.2399 41.0993 52.5464C42.4212 54.1062 44.759 54.8831 47.1689 54.5979C49.3185 54.3435 51.2149 53.2808 52.2533 51.7589C52.7712 53.2128 53.2298 54.6947 53.6235 56.2035C53.8708 57.1513 54.0928 58.1106 54.2878 59.081C53.2464 58.297 51.9506 57.7307 50.5316 57.4742C47.831 56.9861 45.1553 57.7053 43.575 59.3547C43.2972 59.6447 43.2198 60.0728 43.3785 60.4417C44.2815 62.54 46.5361 64.1502 49.2368 64.6383C51.3418 65.0188 53.4317 64.6658 54.9994 63.7105C55.3291 66.7934 55.384 69.9776 55.1218 73.2551C54.2359 71.9481 52.8724 70.837 51.225 70.1373C48.6285 69.0346 45.7861 69.1493 43.8322 70.4406C43.4971 70.6621 43.327 71.0625 43.4003 71.4574C43.8279 73.7601 45.7191 75.8852 48.3156 76.9879C50.4751 77.905 52.8045 77.9801 54.6516 77.2366C54.2518 79.7986 53.6567 82.4134 52.8475 85.0775C52.2167 83.3672 50.8478 81.7869 49.0151 80.7293C46.5718 79.3192 43.7365 79.0877 41.6402 80.1321C41.2807 80.3112 41.0632 80.688 41.088 81.0889C41.2326 83.4265 42.8516 85.7656 45.2949 87.1756C47.4292 88.4073 49.8625 88.7397 51.8412 88.1081C50.6199 91.4973 49.0501 94.9621 47.0945 98.4957C46.903 97.2403 46.4083 95.9636 45.6314 94.8019C44.0631 92.4571 41.6222 90.996 39.2802 91.0061C38.8785 91.0078 38.5169 91.2497 38.3619 91.6202C37.4582 93.7809 37.8764 96.5948 39.4447 98.9397C40.758 100.903 42.6833 102.247 44.65 102.626C43.4746 104.491 42.1909 106.374 40.7936 108.274C40.6757 107.032 40.2686 105.753 39.5835 104.567C38.173 102.124 35.8336 100.505 33.496 100.361C33.0951 100.336 32.7183 100.554 32.5393 100.913C31.4953 103.01 31.7274 105.845 33.1379 108.288C34.2506 110.215 35.9413 111.629 37.7532 112.211C36.0633 114.3 34.2352 116.408 32.262 118.533C32.3307 117.54 32.2321 116.497 31.9553 115.464C31.2252 112.739 29.3844 110.57 27.1638 109.826C26.7829 109.698 26.3627 109.811 26.0967 110.112C24.5457 111.867 24.036 114.665 24.7661 117.39C25.3676 119.635 26.723 121.503 28.4235 122.507C27.0109 123.915 25.5342 125.329 23.9916 126.751C24.0513 126.319 24.0821 125.876 24.0821 125.427C24.0821 122.606 22.8654 120.035 20.9131 118.741C20.5783 118.519 20.1432 118.519 19.8084 118.741C17.856 120.035 16.6393 122.606 16.6393 125.427C16.6393 127.748 17.4631 129.901 18.8428 131.311C15.3707 134.271 11.6099 137.258 7.54394 140.271C7.10021 140.6 7.00705 141.226 7.33586 141.67C7.66467 142.114 8.29095 142.207 8.73468 141.878C11.3134 139.967 13.7724 138.065 16.1157 136.171C16.6996 138.104 18.2596 139.89 20.3776 140.986C22.883 142.283 25.726 142.384 27.7722 141.244C28.1231 141.049 28.323 140.662 28.2798 140.263C28.0281 137.935 26.3035 135.672 23.798 134.376C22.4227 133.664 20.9458 133.313 19.5548 133.329C20.1551 132.821 20.747 132.314 21.3308 131.808C21.4553 131.708 21.5762 131.603 21.6934 131.493C23.6192 129.814 25.455 128.143 27.2036 126.481C27.8668 128.294 29.3891 129.944 31.4088 130.966C33.9255 132.241 36.7692 132.317 38.8053 131.16C39.1545 130.961 39.351 130.573 39.3044 130.174C39.0322 127.848 37.2878 125.601 34.7711 124.326C33.3618 123.613 31.85 123.275 30.4349 123.319C32.238 121.501 33.9376 119.695 35.5375 117.899C36.3904 119.949 38.465 121.624 41.0336 122.313C43.7585 123.043 46.5572 122.533 48.312 120.982C48.613 120.716 48.7256 120.296 48.598 119.915C47.8537 117.694 45.6848 115.853 42.9599 115.123C41.1894 114.649 39.3878 114.698 37.8615 115.216C39.9697 112.71 41.8847 110.228 43.6168 107.77C44.9713 109.226 47.1079 110.148 49.4489 110.238C52.2678 110.347 54.8842 109.23 56.2521 107.329C56.4867 107.003 56.5035 106.569 56.2947 106.225C55.0773 104.225 52.5546 102.91 49.7357 102.801C48.6599 102.76 47.6137 102.897 46.655 103.187C48.2561 100.611 49.658 98.0634 50.8728 95.5483C52.4556 97.1175 54.8675 98.0994 57.5056 98.1704C60.7824 98.2586 63.7864 96.9247 65.3303 94.7257C65.5611 94.397 65.5728 93.962 65.3601 93.6213C63.9367 91.3424 61.0088 89.8488 57.7319 89.7606C56.0251 89.7146 54.3924 90.0545 53.0015 90.7014C53.9607 88.2753 54.7474 85.8816 55.373 83.5229C57.6353 85.0879 60.9093 85.5585 64.1361 84.6939C67.7088 83.7366 70.5132 81.3329 71.468 78.4843C71.5956 78.1035 71.483 77.6832 71.182 77.4172C68.9309 75.4277 65.3003 74.7481 61.7276 75.7054C59.6268 76.2683 57.7916 77.3314 56.442 78.6909C57.0612 75.1942 57.3295 71.781 57.2871 68.4596C59.4237 69.9632 62.5309 70.4164 65.5868 69.5976C68.9455 68.6976 71.5894 66.436 72.4911 63.746C72.6187 63.3652 72.5061 62.9449 72.2052 62.6789C70.0793 60.8 66.6587 60.1633 63.3 61.0633C60.6252 61.78 58.4038 63.3603 57.1546 65.3328C56.9158 62.0214 56.3699 58.8071 55.5587 55.6985C55.5508 55.6681 55.5428 55.6376 55.5348 55.6072C57.2715 56.6578 59.6424 56.9336 61.9599 56.3127C64.6848 55.5825 66.8537 53.7418 67.598 51.5211C67.7256 51.1403 67.613 50.72 67.3121 50.4541C65.5572 48.903 62.7585 48.3933 60.0336 49.1235C57.6866 49.7524 55.7521 51.2052 54.7851 53.0151C53.9078 50.2378 52.8217 47.5573 51.5609 44.9799C53.5055 45.5057 55.8404 45.1316 57.8885 43.9226C60.3178 42.4887 61.9138 40.1338 62.0354 37.7949C62.0562 37.3938 61.8351 37.0191 61.4738 36.8435C59.3673 35.8198 56.5344 36.0792 54.1051 37.5132C52.1339 38.6768 50.7114 40.4467 50.18 42.3224C49.004 40.1857 47.7095 38.1256 46.3176 36.1461C48.2043 36.0216 50.1755 35.0751 51.721 33.4974C53.695 31.4821 54.6253 28.7938 54.1359 26.5035C54.0519 26.1107 53.7412 25.8062 53.3467 25.7304C51.0468 25.2883 48.3782 26.2738 46.4041 28.2891C45.0695 29.6515 44.212 31.3215 43.9477 32.9682C42.2844 30.8611 40.5145 28.8568 38.6675 26.9608C40.5982 26.3877 42.3889 24.8445 43.4978 22.7414C44.8135 20.2461 44.9366 17.404 43.813 15.3491C43.6203 14.9967 43.2355 14.7937 42.8358 14.8338C40.5055 15.0675 38.2299 16.7746 36.9141 19.27C36.0658 20.8788 35.7133 22.6317 35.8709 24.2249C33.8562 22.3455 31.7723 20.5888 29.6533 18.9611C31.3792 18.1191 32.8581 16.4516 33.6739 14.3558C34.6972 11.727 34.4961 8.88937 33.146 6.97562C32.9145 6.64742 32.5091 6.4896 32.1166 6.57489C29.8279 7.07222 27.7613 9.02713 26.738 11.656C26.1124 13.2633 25.9444 14.9486 26.2169 16.453C24.5436 15.2937 22.8601 14.2147 21.1826 13.2192C22.9162 11.9241 24.0466 9.601 24.1681 7.02098C24.3007 4.2031 23.2063 1.57732 21.3169 0.193292ZM18.7313 6.76504C18.8235 4.80561 19.6226 3.19824 20.6658 2.2792C21.618 3.29218 22.2625 4.9675 22.1703 6.92693C22.078 8.88636 21.279 10.4937 20.2358 11.4128C19.2836 10.3998 18.639 8.72447 18.7313 6.76504ZM2.10905 3.57155C2.44717 4.92009 3.50889 6.36745 5.20768 7.34825C6.90648 8.32905 8.69079 8.52485 10.0277 8.14339C9.68961 6.79485 8.62788 5.34749 6.92909 4.36669C5.2303 3.38589 3.44598 3.19009 2.10905 3.57155ZM34.8699 107.288C33.8891 105.589 33.6933 103.805 34.0748 102.468C35.4233 102.806 36.8707 103.868 37.8515 105.567C38.8323 107.265 39.0281 109.05 38.6466 110.387C37.2981 110.049 35.8507 108.987 34.8699 107.288ZM18.6393 125.427C18.6393 123.466 19.3619 121.822 20.3607 120.855C21.3595 121.822 22.0821 123.466 22.0821 125.427C22.0821 127.389 21.3595 129.032 20.3607 129.999C19.3619 129.032 18.6393 127.389 18.6393 125.427ZM27.1774 112.011C26.463 113.204 26.1903 114.978 26.698 116.873C27.2057 118.767 28.3289 120.168 29.544 120.843C30.2585 119.651 30.5312 117.876 30.0235 115.982C29.5158 114.087 28.3925 112.687 27.1774 112.011ZM22.8789 136.152C24.6211 137.054 25.7484 138.451 26.1483 139.782C24.8303 140.225 23.0389 140.111 21.2967 139.21C19.5545 138.308 18.4272 136.911 18.0273 135.58C19.3453 135.137 21.1367 135.251 22.8789 136.152ZM42.4423 117.055C44.3371 117.563 45.7372 118.686 46.4128 119.901C45.2202 120.616 43.446 120.888 41.5512 120.381C39.6565 119.873 38.2563 118.75 37.5807 117.535C38.7733 116.82 40.5475 116.547 42.4423 117.055ZM54.1608 106.696C53.2329 105.661 51.6188 104.875 49.6587 104.8C47.6985 104.724 46.0287 105.383 45.0239 106.343C45.9517 107.379 47.5658 108.164 49.526 108.24C51.4861 108.315 53.1559 107.657 54.1608 106.696ZM57.6781 91.7598C60.1056 91.8252 62.121 92.8037 63.2477 94.117C62.052 95.3678 59.9869 96.2365 57.5594 96.1711C55.1318 96.1058 53.1164 95.1272 51.9897 93.8139C53.1855 92.5632 55.2505 91.6945 57.6781 91.7598ZM69.308 78.4912C67.6145 77.3461 65.0033 76.8982 62.2452 77.6373C59.4872 78.3763 57.4497 80.0697 56.5557 81.9081C58.2492 83.0533 60.8604 83.5011 63.6185 82.7621C66.3765 82.023 68.4139 80.3297 69.308 78.4912ZM63.8176 62.9952C66.3587 62.3143 68.759 62.7181 70.3264 63.7541C69.487 65.435 67.6102 66.9849 65.0692 67.6657C62.5281 68.3466 60.1278 67.9428 58.5604 66.9067C59.3998 65.2259 61.2766 63.676 63.8176 62.9952ZM65.4128 51.5348C64.2202 50.8203 62.446 50.5476 60.5512 51.0553C58.6565 51.563 57.2563 52.6863 56.5807 53.9013C57.7734 54.6158 59.5476 54.8885 61.4423 54.3808C63.3371 53.8731 64.7372 52.7499 65.4128 51.5348ZM55.1217 39.2355C56.811 38.2384 58.5934 38.0254 59.9339 38.3939C59.6088 39.7457 58.5611 41.2032 56.8718 42.2003C55.1826 43.1975 53.4002 43.4105 52.0597 43.0419C52.3848 41.6902 53.4325 40.2326 55.1217 39.2355ZM52.2618 27.6273C50.8716 27.6192 49.2055 28.2873 47.8328 29.6886C46.4602 31.0899 45.8265 32.7694 45.8633 34.1592C47.2535 34.1673 48.9196 33.4991 50.2922 32.0978C51.6649 30.6965 52.2986 29.0171 52.2618 27.6273ZM38.6832 20.2028C39.5982 18.4677 41.0037 17.3512 42.3383 16.9616C42.7708 18.2829 42.6436 20.0734 41.7286 21.8086C40.8137 23.5438 39.4081 24.6602 38.0736 25.0498C37.6411 23.7285 37.7683 21.938 38.6832 20.2028ZM31.8644 8.74547C30.5828 9.28437 29.3134 10.5535 28.6018 12.3815C27.8902 14.2095 27.9676 16.0028 28.5475 17.2664C29.8291 16.7275 31.0985 15.4583 31.8101 13.6303C32.5217 11.8024 32.4444 10.009 31.8644 8.74547ZM39.9964 93.0706C39.7038 94.4297 40.0167 96.1973 41.1072 97.8278C42.1977 99.4583 43.7118 100.422 45.0797 100.671C45.3723 99.3119 45.0594 97.5443 43.9689 95.9138C42.8784 94.2833 41.3643 93.3192 39.9964 93.0706ZM46.2946 85.4434C44.5956 84.4629 43.5336 83.0158 43.1953 81.6673C44.5321 81.2856 46.3165 81.481 48.0155 82.4615C49.7144 83.442 50.7764 84.8892 51.1148 86.2376C49.7779 86.6193 47.9936 86.4239 46.2946 85.4434ZM45.5622 71.7755C46.0619 73.0729 47.2919 74.3803 49.0974 75.1471C50.9029 75.9138 52.6978 75.8911 53.9784 75.3498C53.4787 74.0524 52.2487 72.745 50.4432 71.9782C48.6377 71.2114 46.8428 71.2342 45.5622 71.7755ZM49.5925 62.6702C47.7396 62.3354 46.3108 61.3773 45.5607 60.2749C46.6493 59.5048 48.323 59.1074 50.1759 59.4423C52.0288 59.7772 53.4575 60.7353 54.2076 61.8377C53.1191 62.6078 51.4454 63.0051 49.5925 62.6702ZM43.1556 51.7468C44.0358 52.4033 45.39 52.7945 46.9339 52.6118C48.4777 52.429 49.7031 51.7325 50.4058 50.8887C49.5256 50.2322 48.1714 49.841 46.6275 50.0237C45.0837 50.2064 43.8583 50.903 43.1556 51.7468ZM42.2084 42.7813C40.6605 42.9263 39.3163 42.5021 38.4524 41.8243C39.1755 40.9979 40.4175 40.3315 41.9654 40.1866C43.5133 40.0416 44.8574 40.4659 45.7213 41.1436C44.9983 41.97 43.7562 42.6364 42.2084 42.7813ZM32.5661 34.448C33.5342 34.9661 34.9314 35.1515 36.431 34.7411C37.9305 34.3307 39.0385 33.4596 39.6078 32.5206C38.6397 32.0024 37.2424 31.817 35.7429 32.2275C34.2434 32.6379 33.1353 33.509 32.5661 34.448ZM28.0341 26.3075C26.7708 26.9405 25.4473 26.9655 24.4379 26.5672C24.723 25.5201 25.5353 24.4748 26.7987 23.8417C28.062 23.2087 29.3856 23.1836 30.395 23.582C30.1099 24.6291 29.2975 25.6744 28.0341 26.3075ZM15.9486 20.9935C17.006 21.2375 18.3112 21.0161 19.4665 20.2025C20.6218 19.3888 21.2699 18.2345 21.3963 17.1567C20.3389 16.9126 19.0338 17.134 17.8785 17.9476C16.7232 18.7613 16.0751 19.9156 15.9486 20.9935ZM12.3939 15.25C11.1897 15.9893 9.8732 16.128 8.83328 15.8179C9.02732 14.7502 9.74682 13.6389 10.9511 12.8996C12.1553 12.1603 13.4718 12.0216 14.5117 12.3317C14.3177 13.3994 13.5982 14.5107 12.3939 15.25ZM37.1687 129.712C36.7571 128.384 35.6176 126.997 33.8676 126.111C32.1175 125.224 30.3252 125.127 29.0112 125.581C29.4227 126.909 30.5622 128.296 32.3123 129.182C34.0623 130.068 35.8547 130.166 37.1687 129.712Z" fill="#C2B5AE"/>
</svg>
